<svg width="343" height="118" viewBox="0 0 343 118" fill="none" xmlns="http://www.w3.org/2000/svg">
<path d="M189.722 95.3113C188.118 97.3722 185.899 98.8439 183.377 99.52C180.854 100.196 178.154 100.042 175.657 99.0808C173.159 98.1192 170.988 96.3977 169.45 94.158C167.911 91.9182 167.081 89.2726 167.076 86.5923C167.072 83.9119 167.893 81.3314 169.424 79.2127C170.955 77.094 173.12 75.5435 175.615 74.7787C178.11 74.0139 180.809 74.0732 183.334 74.9482C185.86 75.8233 188.084 77.4702 189.696 79.6579L179.702 87.0901L189.722 95.3113Z" fill="#FFE70D"/>
<ellipse cx="201" cy="90.5" rx="6" ry="6.5" fill="#FEB424"/>
<ellipse cx="233" cy="90.5" rx="6" ry="6.5" fill="#FB49FF"/>
<circle cx="264.5" cy="90.5" r="6.5" fill="#1ED4FC"/>
<ellipse cx="297" cy="90.5" rx="6" ry="6.5" fill="#FF2835"/>
<path d="M30.096 28.608C25.488 27.216 22.104 26.52 19.944 26.52C17.832 26.52 16.368 27.456 15.552 29.328C14.784 31.2 14.4 34.176 14.4 38.256C14.4 42.288 14.76 45.24 15.48 47.112C16.248 48.936 17.784 49.848 20.088 49.848C20.76 49.848 22.056 49.656 23.976 49.272V43.8H20.736V35.304H34.488V60H25.992L24.84 57.696H24.552C23.736 58.368 23.088 58.872 22.608 59.208C21.264 60.216 19.368 60.72 16.92 60.72C6.888 60.72 1.872 53.136 1.872 37.968C1.872 30.384 3.192 24.6 5.832 20.616C8.472 16.584 12.912 14.568 19.152 14.568C24.144 14.568 28.44 15.336 32.04 16.872L30.096 28.608ZM72.6159 60H60.5919L59.2239 52.944H50.7279L49.3599 60H37.9119L46.1199 15.288H64.4079L72.6159 60ZM57.8559 44.52L55.3359 28.536H54.8319L52.3119 44.52H57.8559ZM119.635 60H108.331V36.672H107.683L103.435 60H91.8433L87.8113 36.672H87.0913V60H75.9313L77.4433 15.288H93.6433L97.6753 39.48H98.2513L102.139 15.288H118.123L119.635 60ZM149.704 60H125.512V15.288H150.424L149.704 26.304H137.824V33H148.12V42.504H137.824V49.92H150.424L149.704 60Z" fill="#DBF01A"/>
<path d="M155.152 28.752C155.152 24.48 156.4 21.048 158.896 18.456C161.392 15.864 164.8 14.568 169.12 14.568C173.488 14.568 177.952 15 182.512 15.864L181.072 27.384C176.32 26.28 173.056 25.728 171.28 25.728C169.024 25.728 167.896 26.64 167.896 28.464C167.896 29.184 168.424 29.88 169.48 30.552C170.584 31.224 171.904 31.944 173.44 32.712C174.976 33.432 176.512 34.32 178.048 35.376C179.584 36.384 180.88 37.848 181.936 39.768C183.04 41.688 183.592 43.896 183.592 46.392C183.592 50.952 182.368 54.48 179.92 56.976C177.472 59.472 173.992 60.72 169.48 60.72C165.016 60.72 160.648 60.024 156.376 58.632L157.168 47.904C162.304 49.392 165.88 50.136 167.896 50.136C169.912 50.136 170.92 49.248 170.92 47.472C170.92 46.56 170.368 45.72 169.264 44.952C168.208 44.184 166.912 43.416 165.376 42.648C163.84 41.88 162.28 40.992 160.696 39.984C159.16 38.976 157.84 37.512 156.736 35.592C155.68 33.672 155.152 31.392 155.152 28.752ZM213.887 26.16H205.535V60H193.223V26.16H184.367L185.087 15.288H214.607L213.887 26.16ZM220.09 19.968C222.874 16.368 227.41 14.568 233.698 14.568C239.986 14.568 244.474 16.344 247.162 19.896C249.898 23.448 251.266 29.232 251.266 37.248C251.266 45.216 249.874 51.12 247.09 54.96C244.306 58.8 239.794 60.72 233.554 60.72C227.314 60.72 222.826 58.824 220.09 55.032C217.354 51.24 215.986 45.36 215.986 37.392C215.986 29.376 217.354 23.568 220.09 19.968ZM238.882 37.248C238.882 32.832 238.522 29.856 237.802 28.32C237.13 26.736 235.714 25.944 233.554 25.944C231.442 25.944 230.074 26.736 229.45 28.32C228.826 29.856 228.514 32.808 228.514 37.176V38.904C228.514 43.56 228.85 46.632 229.522 48.12C230.242 49.56 231.658 50.28 233.77 50.28C235.93 50.28 237.322 49.584 237.946 48.192C238.57 46.8 238.882 43.92 238.882 39.552V37.248ZM286.768 29.472C286.768 32.16 286.36 34.392 285.544 36.168C284.728 37.944 283.456 39.552 281.728 40.992L287.704 60H274.384L269.92 43.872H268.264V60H256.168V15.288H272.872C277.672 15.288 281.176 16.416 283.384 18.672C285.64 20.928 286.768 24.528 286.768 29.472ZM270.136 36.312C271.384 36.312 272.272 35.952 272.8 35.232C273.328 34.512 273.592 33.216 273.592 31.344C273.592 29.424 273.328 28.104 272.8 27.384C272.272 26.616 271.408 26.232 270.208 26.232H268.264V36.312H270.136ZM315.938 60H291.746V15.288H316.658L315.938 26.304H304.058V33H314.354V42.504H304.058V49.92H316.658L315.938 60Z" fill="#E83766"/>
<rect x="157" y="65" width="160" height="2" fill="#3AE2E2"/>
</svg>
